<!-- Generated by IcoMoon.io -->
<svg version="1.1" xmlns="http://www.w3.org/2000/svg" width="30" height="32" viewBox="0 0 30 32">
<title>antenna</title>
<path d="M28.437 19.831l-7.577-7.633 0.841-4.142c0.217 0.085 0.448 0.129 0.681 0.131h0.006c1.070 0.013 1.948-0.844 1.96-1.914s-0.845-1.948-1.915-1.96c-1.070-0.013-1.948 0.844-1.96 1.914-0.003 0.229 0.035 0.457 0.112 0.672l-4.451 0.543-7.261-7.299c-0.089-0.091-0.211-0.143-0.338-0.144-0.126 0.001-0.246 0.051-0.335 0.139l-1.357 1.35c-0.187 0.187-0.187 0.49 0 0.677l0.73 0.741c-2.83 5.203-1.911 11.647 2.261 15.851 0.038 0.037 0.083 0.066 0.131 0.088-0.030 0.162-0.046 0.326-0.047 0.491v5.552h-5.744c-1.321 0.002-2.392 1.072-2.393 2.393v0.957c0 0.264 0.214 0.479 0.479 0.479h22.017c0.264 0 0.479-0.214 0.479-0.479v-0.957c-0.002-1.321-1.072-2.392-2.393-2.393h-5.744v-2.461c0.9 0.189 1.817 0.285 2.736 0.287 2.206-0.002 4.377-0.552 6.318-1.601l0.734 0.739c0.089 0.091 0.211 0.143 0.338 0.144 0.126-0.001 0.246-0.051 0.335-0.139l1.357-1.35c0.187-0.187 0.187-0.49 0-0.677zM21.713 5.594c0.375-0.373 0.981-0.371 1.354 0.004s0.371 0.981-0.004 1.354c-0.179 0.178-0.422 0.279-0.675 0.279h-0.003c-0.529-0.003-0.955-0.434-0.952-0.962 0.001-0.253 0.103-0.495 0.282-0.674h-0.002zM20.586 8.739l-0.537 2.643-1.055-1.061 1.592-1.582zM20.042 7.93l-1.723 1.713-1.333-1.34 3.056-0.373zM22.363 25.846c0.793 0 1.436 0.643 1.436 1.436v0.479h-21.060v-0.479c0-0.793 0.643-1.436 1.436-1.436h18.188zM15.662 23.932v0.957h-4.786v-0.957h4.786zM10.876 22.974v-3.638c0-1.161 1.074-2.106 2.393-2.106s2.393 0.945 2.393 2.106v3.638h-4.786zM16.619 21.452v-2.116c0-1.689-1.503-3.063-3.35-3.063-1.195-0.018-2.312 0.59-2.945 1.603-3.642-3.835-4.462-9.553-2.045-14.258l16.694 16.79c-2.578 1.311-5.533 1.681-8.354 1.044zM26.75 20.839l-18.897-19.008 0.677-0.675 7.121 7.161c0.003 0 0.005 0.006 0.009 0.009l11.77 11.838-0.679 0.675z"></path>
<path d="M13.273 18.188h-0.004c-0.793-0.001-1.437 0.641-1.438 1.434s0.641 1.437 1.434 1.438h0.004c0.793 0.001 1.437-0.641 1.438-1.434s-0.641-1.437-1.434-1.438zM13.608 19.963c-0.090 0.090-0.212 0.14-0.339 0.139-0.264-0.001-0.477-0.217-0.476-0.481 0.001-0.127 0.051-0.248 0.141-0.337s0.209-0.139 0.335-0.139c0.264 0.001 0.477 0.217 0.476 0.481-0.001 0.127-0.051 0.248-0.141 0.337h0.004z"></path>
</svg>
